<?xml version="1.0" encoding="utf-8"?>
<!-- Generator: Adobe Illustrator 24.3.0, SVG Export Plug-In . SVG Version: 6.00 Build 0)  -->
<svg version="1.1" id="Layer_1" xmlns="http://www.w3.org/2000/svg" xmlns:xlink="http://www.w3.org/1999/xlink" x="0px" y="0px"
	 viewBox="0 0 595.28 841.89" style="enable-background:new 0 0 595.28 841.89;" xml:space="preserve">
<style type="text/css">
	.st0{opacity:0.33;}
	.st1{fill:#97B4C4;}
</style>
<g class="st0">
	<path class="st1" d="M458.65,419.2c0-40.05-12.85-77.1-34.65-107.26c9.82,187.55-82.91,204.72-82.91,204.72
		c-13.76-146.4,20.98-212.49,49.64-239.91c-21.02-17.05-45.88-29.54-73.08-35.98c-76.65,68-98.37,178.42-98.37,178.42
		c-23.13-115.65,15.75-178.81,15.81-178.91C153.17,258.63,91.96,331.77,91.96,419.2c0,56.8,25.83,107.57,66.39,141.2
		c-23.15-128.02-1.21-164.34-1.21-164.34C194.9,579.98,215,592.38,215.01,592.39c13.21,4.6,27.09,7.74,41.48,9.21
		c-22.26-159.41,37.1-228.68,37.1-228.68c-6.63,116.36,17.02,185.07,36.76,221.23C404.71,570.77,458.65,501.29,458.65,419.2z"/>
</g>
</svg>
