<?xml version="1.0" encoding="utf-8"?>
<!-- Generator: Adobe Illustrator 24.3.0, SVG Export Plug-In . SVG Version: 6.00 Build 0)  -->
<svg version="1.1" id="Layer_1" xmlns="http://www.w3.org/2000/svg" xmlns:xlink="http://www.w3.org/1999/xlink" x="0px" y="0px"
	 viewBox="0 0 1920 1080" style="enable-background:new 0 0 1920 1080;" xml:space="preserve">
<style type="text/css">
	.st0{fill-rule:evenodd;clip-rule:evenodd;fill:#FFFFFF;}
</style>
<path id="Path_38" class="st0" d="M1242.85,582.67v-22.74h7.77l1.11-8.88h-8.88v-5.54c0-2.5,0.83-4.44,4.44-4.44h4.71v-8.04
	c-1.11,0-3.88-0.28-6.93-0.28c-5.89-0.4-11,4.06-11.39,9.95c-0.04,0.56-0.03,1.13,0.02,1.69v6.65h-7.77v8.88h7.77v22.74H1242.85z"/>
<path id="Path_39" class="st0" d="M1084.84,576.81c15.94,0.14,28.98-12.66,29.12-28.6c0-0.17,0-0.35,0-0.52v-1.39
	c1.94-1.48,3.62-3.26,4.99-5.27c-1.86,0.81-3.82,1.37-5.82,1.67c2.06-1.3,3.63-3.25,4.44-5.55c-2,1.12-4.15,1.96-6.38,2.5
	c-1.9-2.14-4.63-3.35-7.49-3.33c-5.63,0.08-10.18,4.63-10.26,10.26c-0.06,0.75,0.03,1.51,0.28,2.22
	c-8.26-0.4-15.94-4.34-21.08-10.82c-0.91,1.61-1.39,3.42-1.39,5.27c0.07,3.4,1.71,6.57,4.44,8.6c-1.67-0.03-3.29-0.51-4.71-1.39l0,0
	c-0.01,4.9,3.5,9.11,8.32,9.98c-0.9,0.24-1.84,0.34-2.77,0.28c-0.66,0.04-1.32-0.05-1.94-0.28c1.39,4.21,5.27,7.1,9.71,7.21
	c-3.65,2.85-8.13,4.41-12.76,4.44c-0.84,0.04-1.68-0.05-2.5-0.28C1073.62,575.14,1079.17,576.9,1084.84,576.81"/>
<path id="Path_40" class="st0" d="M937.1,537.18c3.33-0.12,6.67-0.03,9.98,0.28c1.61-0.02,3.21,0.26,4.71,0.83
	c2.08,0.97,3.75,2.64,4.71,4.71c0.57,1.51,0.85,3.11,0.83,4.72c0,2.5,0.28,3.33,0.28,9.98c0.12,3.33,0.03,6.67-0.28,9.98
	c0.02,1.61-0.26,3.21-0.83,4.71c-0.97,2.08-2.64,3.75-4.71,4.71c-1.51,0.57-3.1,0.85-4.71,0.83c-2.5,0-3.33,0.28-9.98,0.28
	c-3.33,0.12-6.67,0.03-9.98-0.28c-1.61,0.02-3.21-0.26-4.71-0.83c-2.08-0.97-3.75-2.64-4.71-4.71c-0.57-1.51-0.86-3.1-0.84-4.71
	c0-2.5-0.28-3.33-0.28-9.98c-0.12-3.33-0.03-6.67,0.28-9.98c-0.02-1.61,0.26-3.21,0.83-4.71c0.48-1.03,1.14-1.97,1.94-2.77
	c0.65-0.97,1.64-1.66,2.77-1.94c1.51-0.57,3.1-0.85,4.71-0.83C930.43,537.15,933.77,537.06,937.1,537.18 M937.1,532.75
	c-3.42-0.12-6.85-0.03-10.26,0.28c-2.08,0-4.15,0.37-6.1,1.11c-1.68,0.55-3.21,1.5-4.44,2.77c-1.27,1.23-2.22,2.75-2.77,4.44
	c-0.87,1.91-1.25,4.01-1.11,6.1c-0.31,3.41-0.4,6.84-0.28,10.26c-0.12,3.42-0.03,6.85,0.28,10.26c0,2.08,0.37,4.15,1.11,6.1
	c0.55,1.68,1.5,3.21,2.77,4.44c1.23,1.27,2.75,2.22,4.44,2.77c1.95,0.74,4.02,1.11,6.1,1.11c3.41,0.31,6.84,0.4,10.26,0.28
	c3.42,0.12,6.85,0.03,10.26-0.28c2.08,0,4.15-0.37,6.1-1.11c3.38-1.17,6.04-3.83,7.21-7.21c0.74-1.95,1.11-4.02,1.11-6.1
	c0-2.77,0.28-3.61,0.28-10.26c0.12-3.42,0.03-6.85-0.28-10.26c0-2.08-0.37-4.15-1.11-6.1c-0.55-1.68-1.5-3.21-2.77-4.44
	c-1.23-1.27-2.75-2.22-4.44-2.77c-1.95-0.74-4.02-1.11-6.1-1.11C943.95,532.72,940.52,532.63,937.1,532.75 M937.1,544.95
	c-6.93-0.12-12.64,5.41-12.76,12.34c0,0.14,0,0.28,0,0.42c0,7.05,5.71,12.76,12.76,12.76c7.05,0,12.76-5.71,12.76-12.76
	C949.86,550.66,944.14,544.95,937.1,544.95L937.1,544.95 M937.1,566.03c-4.51,0.08-8.24-3.51-8.32-8.02c0-0.1,0-0.2,0-0.3
	c-0.08-4.51,3.51-8.24,8.02-8.32c0.1,0,0.2,0,0.3,0c4.51-0.08,8.24,3.51,8.32,8.02c0,0.1,0,0.2,0,0.3c0.08,4.51-3.51,8.24-8.02,8.32
	C937.29,566.03,937.2,566.03,937.1,566.03 M950.41,541.35c-1.69,0-3.05,1.37-3.05,3.05s1.37,3.05,3.05,3.05
	c1.69,0,3.05-1.37,3.05-3.05l0,0C953.45,542.72,952.09,541.36,950.41,541.35"/>
</svg>
